#!OML:ASF E:/inclinewalkrobotboard/Project1/Captureday1/Session1/subject1.ASF
:FULLY-SPECIFIED
:DEGREES
26
root 0 0 0 1.3138096714289866 -3.853392459622921 1.8325937374987182
lowerback 12.169239746884486 0.8576363357400374 -0.05987374002103463
upperback -4.386196834975621 1.0949437873772243 -0.5683901175683593
thorax -11.618972346295127 0.4974928470894896 -0.8203023945341474
lowerneck -6.010524465754181 1.5943115503142045 4.463914279927516
upperneck 18.388863172716324 3.0996005473916455 -8.197362706072196
head 6.7437866610161175 1.1345379171501357 -3.1432512231025154
rclavicle 1.93212200082703E-15 -4.030586055510533E-16
rhumerus 21.25315679128402 15.771584837565337 -47.637578777750036
rradius 73.64694857167595
rwrist 26.82287514590915
rhand -34.66075681197632 -57.66396898078541
rfingers 7.125020000000014
rthumb -7.801639868119896 -87.60813022492056
lclavicle -4.373060704807746E-16 -1.0194961574349592E-15
lhumerus 22.124633398329735 -12.52936214206027 43.863976348019946
lradius 71.11794452834968
lwrist -23.560711102989764
lhand -44.62166538081333 -71.13334242350987
lfingers 7.125020000000031
lthumb -17.401173788109382 -41.83532879521947
rfemur -25.231076816153774 -2.2180376960256725 17.200942566937577
rtibia 54.196060563239215
rfoot -29.698872502733064 -16.76721745258203
rtoes -18.433063751006465
lfemur -26.488350159987647 2.290874741445879 -17.62729515854565
ltibia 53.3302242179287
lfoot -32.59935456147877 -2.614365850236087
ltoes -21.020226006653203
27
root 0 0 0 1.3136407746523755 -3.855764349424959 1.8329304673827456
lowerback 12.169089198814506 0.8579238443525532 -0.060198283301037714
upperback -4.385621815499897 1.095265130524806 -0.5682620505940864
thorax -11.618206222674761 0.49768620471308234 -0.8200319996600094
lowerneck -6.009073410596512 1.593619829930616 4.463361663114897
upperneck 18.38726393928416 3.098792555131909 -8.197020892554265
head 6.743085619868685 1.1341832899972042 -3.1431505996575666
rclavicle 1.9194607647052414E-15 -3.9719650339127656E-16
rhumerus 21.25252345264758 15.771345576222734 -47.6386591369976
rradius 73.64592389800919
rwrist 26.82218429740374
rhand -34.6599850683414 -57.662201553194684
rfingers 7.125020000000014
rthumb -7.800617772331238 -87.60619395421034
lclavicle -4.4293558703712237E-16 -1.0185756733568134E-15
lhumerus 22.126271057469843 -12.527883186706907 43.86368491369278
lradius 71.11879719958138
lwrist -23.560901800878305
lhand -44.62181412770242 -71.13558618174277
lfingers 7.125020000000031
lthumb -17.4013163232937 -41.838575605289606
rfemur -25.23204829884128 -2.2171651480764893 17.201739032396343
rtibia 54.193934144316685
rfoot -29.696169577590247 -16.768494178520015
rtoes -18.43057491969233
lfemur -26.49508235624502 2.29179761212161 -17.631346996594406
ltibia 53.329911352992184
lfoot -32.599907147292924 -2.612505166892107
ltoes -21.00692538689485
28
root 0 0 0 1.3139421591654052 -3.8539411763945144 1.8326500893476352
lowerback 12.169265021569052 0.8577041890973467 -0.05984814012554829
upperback -4.386091395309273 1.0950388855683193 -0.568387833253371
thorax -11.61885984953185 0.4975415742151403 -0.8203297117154729
lowerneck -6.010281406396472 1.5941630867636916 4.463804916166327
upperneck 18.38850777352096 3.099415989263737 -8.19726182757215
head 6.743641436411033 1.1344636915752244 -3.1432223873375413
rclavicle 1.932306135561574E-15 -4.0346646525247057E-16
rhumerus 21.253289416318914 15.77182457425158 -47.6376759361594
rradius 73.6470114857841
rwrist 26.82278655423373
rhand -34.660518911500915 -57.66368861885388
rfingers 7.125020000000014
rthumb -7.801416353487319 -87.60788486706372
lclavicle -4.360246190871024E-16 -1.0194895264959542E-15
lhumerus 22.124259732744477 -12.529094203482897 43.86414405351208
lradius 71.11752019314412
lwrist -23.560653732856274
lhand -44.621618372678654 -71.13285624179747
lfingers 7.125020000000031
lthumb -17.401130249455342 -41.83485187699134
rfemur -25.23127410494213 -2.2181517290034574 17.200794029973455
rtibia 54.1963698513327
rfoot -29.699052482808312 -16.767252871335245
rtoes -18.432686304393396
lfemur -26.48885266550525 2.2908877345401275 -17.627695452636125
ltibia 53.32998499837926
lfoot -32.600316149005565 -2.612947296717313
ltoes -21.01722352681996
29
root 0 0 0 1.3138915337005947 -3.8536587757968954 1.8326514626220871
lowerback 12.169264283877247 0.857662810760769 -0.05989387493198428
upperback -4.3861590969995365 1.0949757567816727 -0.5683983610324729
thorax -11.618940163172098 0.4975100098312531 -0.8203019412189907
lowerneck -6.010459389948854 1.5942603945734197 4.463853076202245
upperneck 18.388732075061412 3.0995365242864974 -8.19730569637917
head 6.743737430399525 1.1345128039119312 -3.143228975950395
rclavicle 1.932262361203261E-15 -4.032733093782324E-16
rhumerus 21.253152535923775 15.77165508093366 -47.63770316507197
rradius 73.64692197318708
rwrist 26.82277941269463
rhand -34.660626640520476 -57.6637417287616
rfingers 7.125020000000014
rthumb -7.80151450087857 -87.60789908011579
lclavicle -4.376251758509405E-16 -1.0202338897577573E-15
lhumerus 22.124551192846752 -12.529297339949652 43.86398763338133
lradius 71.11785881137548
lwrist -23.560729427731893
lhand -44.62162935313795 -71.1331907162025
lfingers 7.125020000000031
lthumb -17.401135038936772 -41.83515773778947
rfemur -25.231160430869192 -2.2181012853013433 17.200892605625413
rtibia 54.19627645790214
rfoot -29.698852674217058 -16.767177540777357
rtoes -18.433118263427332
lfemur -26.488817394303826 2.2907899482296163 -17.62758180580078
ltibia 53.32989609749402
lfoot -32.60034949998368 -2.6134799624350507
ltoes -21.01851716730622
